# xmcd
#
# Track frame offsets: 
#        150
#        18204
#        33742
#        46236
#        61207
#        74930
#        91068
#        115039
#        134047
#        146941
#        165965
#        184773
#        198844
#        219824
#
# Disc length: 3229 seconds
#
# Revision: 0
# Processed by: cddbd v1.5.2PL0 Copyright (c) Steve Scherf et al.
# Submitted via: ExactAudioCopyFreeDBPlugin 1.0
#
DISCID=c70c9b0e
DTITLE=Ski's Country Trash - Roadstop in Hell
DYEAR=2013
DGENRE=Country
TTITLE0=Not made for this
TTITLE1=Hell yeah
TTITLE2=Roadstop in hell
TTITLE3=Stainless steel
TTITLE4=The price
TTITLE5=The light
TTITLE6=Father's eyes
TTITLE7=My head
TTITLE8=Devil in a three piece suit
TTITLE9=Cowboys
TTITLE10=Eternal night
TTITLE11=Happily ever after
TTITLE12=River runs red
TTITLE13=May your roads be blessed (live)
EXTD=
EXTT0=
EXTT1=
EXTT2=
EXTT3=
EXTT4=
EXTT5=
EXTT6=
EXTT7=
EXTT8=
EXTT9=
EXTT10=
EXTT11=
EXTT12=
EXTT13=
PLAYORDER=
